<svg width="720" height="840" viewBox="0 0 720 840" fill="none" xmlns="http://www.w3.org/2000/svg">
  <rect width="720" height="840" rx="36" fill="#0F172A"/>
  <circle cx="560" cy="170" r="120" fill="url(#grad1)" fill-opacity="0.3"/>
  <circle cx="180" cy="650" r="140" fill="url(#grad2)" fill-opacity="0.24"/>
  <rect x="130" y="120" width="460" height="600" rx="30" fill="rgba(255,255,255,0.06)" stroke="rgba(255,255,255,0.16)"/>
  <circle cx="360" cy="330" r="120" fill="#F7C8A4"/>
  <path d="M250 315C250 248 302 198 360 198C418 198 470 248 470 315V332H250V315Z" fill="#1F2937"/>
  <path d="M276 326C276 280 310 246 358 246H364C412 246 446 280 446 326V352H276V326Z" fill="#111827"/>
  <circle cx="318" cy="322" r="8" fill="#111827"/>
  <circle cx="402" cy="322" r="8" fill="#111827"/>
  <path d="M330 376C350 390 370 390 390 376" stroke="#9B2C2C" stroke-width="8" stroke-linecap="round"/>
  <path d="M260 489C282 421 330 392 360 392C390 392 438 421 460 489" stroke="#38BDF8" stroke-width="26" stroke-linecap="round"/>
  <rect x="240" y="500" width="240" height="180" rx="24" fill="#111827" stroke="rgba(255,255,255,0.12)"/>
  <rect x="272" y="534" width="176" height="16" rx="8" fill="#38BDF8"/>
  <rect x="272" y="573" width="132" height="14" rx="7" fill="#8B5CF6"/>
  <rect x="272" y="608" width="154" height="14" rx="7" fill="#22D3EE"/>
  <defs>
    <linearGradient id="grad1" x1="440" y1="50" x2="680" y2="290" gradientUnits="userSpaceOnUse">
      <stop stop-color="#38BDF8"/>
      <stop offset="1" stop-color="#8B5CF6"/>
    </linearGradient>
    <linearGradient id="grad2" x1="40" y1="510" x2="320" y2="790" gradientUnits="userSpaceOnUse">
      <stop stop-color="#22D3EE"/>
      <stop offset="1" stop-color="#38BDF8"/>
    </linearGradient>
  </defs>
</svg>
